<?xml version="1.0" encoding="UTF-8"?>
<svg id="Layer_2" data-name="Layer 2" xmlns="http://www.w3.org/2000/svg" viewBox="0 0 86.5 86.5">
  <defs>
    <style>
      .cls-1, .cls-2 {
        fill: #1a1a1a;
      }

      .cls-2 {
        opacity: .7;
      }
    </style>
  </defs>
  <g id="Layer_3" data-name="Layer 3">
    <g>
      <path class="cls-1" d="M43.25,86.5c-1.6,0-3.19-.61-4.41-1.82L1.82,47.66c-2.43-2.43-2.43-6.38,0-8.81L38.84,1.83c1.18-1.18,2.74-1.83,4.41-1.83s3.23.65,4.41,1.83l37.02,37.02c1.18,1.18,1.83,2.74,1.83,4.41s-.65,3.23-1.83,4.41l-37.02,37.02c-1.21,1.21-2.81,1.82-4.41,1.82ZM43.25,5c-.32,0-.63.12-.87.36L5.36,42.38c-.48.48-.48,1.26,0,1.74l37.02,37.02c.48.48,1.26.48,1.74,0l37.02-37.02c.48-.48.48-1.26,0-1.74L44.12,5.36c-.24-.24-.56-.36-.87-.36Z"/>
      <path class="cls-2" d="M67.4,38.24L43.25.83l-24.32,37.41L.67,41.78l.57,2.95,18.33-3.55,22.18,13.23v31.15h3v-31.15l22.02-13.22,18.5,3.55.57-2.95-18.43-3.54ZM64.38,39.11l-21.14,12.7-21.29-12.7L43.25,6.35l21.14,32.75Z"/>
    </g>
  </g>
</svg>