<?xml version="1.0" encoding="UTF-8"?>
<svg id="Layer_2" data-name="Layer 2" xmlns="http://www.w3.org/2000/svg" viewBox="0 0 81.1 84.44">
  <defs>
    <style>
      .cls-1, .cls-2 {
        fill: #1a1a1a;
      }

      .cls-2 {
        opacity: .7;
      }
    </style>
  </defs>
  <g id="Layer_3" data-name="Layer 3">
    <g>
      <path class="cls-1" d="M40.55,84.44c-.85,0-1.71-.13-2.53-.41l-19.99-6.5c-1.66-.54-3.08-1.57-4.1-2.98L1.57,57.55c-1.02-1.41-1.57-3.07-1.57-4.82v-21.02c0-1.74.54-3.41,1.57-4.82L13.92,9.88c1.02-1.41,2.44-2.44,4.1-2.98L38.02.4c1.66-.54,3.41-.54,5.07,0l20,6.5c1.66.54,3.08,1.57,4.1,2.98l12.36,17.01c1.02,1.41,1.57,3.08,1.57,4.82v21.02c0,1.74-.54,3.41-1.57,4.82l-12.36,17.01c-1.02,1.41-2.44,2.44-4.1,2.98l-20,6.5c-.83.27-1.68.4-2.53.4ZM40.55,5c-.33,0-.67.05-.99.16l-20,6.5c-.65.21-1.2.61-1.6,1.16L5.61,29.83c-.4.55-.61,1.2-.61,1.88v21.02c0,.68.21,1.33.61,1.88l12.36,17.01c.4.55.95.95,1.6,1.16l19.99,6.5c.65.21,1.33.21,1.98,0l20-6.5c.65-.21,1.2-.61,1.6-1.16l12.36-17.01c.4-.55.61-1.2.61-1.88v-21.02c0-.68-.21-1.33-.61-1.88l-12.36-17.01c-.4-.55-.95-.95-1.6-1.16h0s-20-6.5-20-6.5c-.32-.1-.66-.16-.99-.16Z"/>
      <path class="cls-2" d="M79.04,53.15l-13.44-4.16c0-.53-.08-1.06-.24-1.58l-7.66-23.59c-.17-.53-.42-1.01-.74-1.43l8.04-11.27-2.44-1.74-8.03,11.25c-.5-.17-1.03-.25-1.58-.25h-24.8c-.55,0-1.08.09-1.58.25l-8.03-11.25-2.44,1.74,8.04,11.27c-.32.43-.57.91-.74,1.43l-7.66,23.59c-.17.52-.25,1.05-.25,1.57l-12.97,4.01.89,2.87,13.01-4.02c.31.43.69.82,1.14,1.15l20.07,14.58c.45.32.93.56,1.43.72v13.93h3v-13.93c.5-.16.99-.4,1.43-.72l20.07-14.58c.45-.32.83-.71,1.13-1.14l13.47,4.17.89-2.87ZM61.79,50.56l-20.07,14.58c-.7.51-1.64.51-2.34,0l-20.07-14.58c-.7-.51-.99-1.4-.72-2.22l7.66-23.59c.27-.82,1.03-1.37,1.89-1.37h24.8c.86,0,1.62.55,1.89,1.37l7.66,23.59c.27.82-.02,1.72-.72,2.22Z"/>
    </g>
  </g>
</svg>