<?xml version="1.0" encoding="UTF-8"?>
<svg id="Layer_2" data-name="Layer 2" xmlns="http://www.w3.org/2000/svg" viewBox="0 0 82 82">
  <defs>
    <style>
      .cls-1 {
        fill: #1a1a1a;
      }

      .cls-2 {
        opacity: .7;
      }
    </style>
  </defs>
  <g id="Layer_3" data-name="Layer 3">
    <g>
      <path class="cls-1" d="M41,5c19.85,0,36,16.15,36,36s-16.15,36-36,36S5,60.85,5,41,21.15,5,41,5M41,0C18.36,0,0,18.36,0,41s18.36,41,41,41,41-18.36,41-41S63.64,0,41,0h0Z"/>
      <path class="cls-1" d="M41,5c19.85,0,36,16.15,36,36s-16.15,36-36,36S5,60.85,5,41,21.15,5,41,5M41,0C18.36,0,0,18.36,0,41s18.36,41,41,41,41-18.36,41-41S63.64,0,41,0h0Z"/>
      <g class="cls-2">
        <path class="cls-1" d="M41,14.91c14.38,0,26.09,11.7,26.09,26.09s-11.7,26.09-26.09,26.09-26.09-11.7-26.09-26.09,11.7-26.09,26.09-26.09M41,11.91c-16.06,0-29.09,13.02-29.09,29.09s13.02,29.09,29.09,29.09,29.09-13.02,29.09-29.09-13.02-29.09-29.09-29.09h0Z"/>
      </g>
    </g>
  </g>
</svg>