<?xml version="1.0" encoding="UTF-8"?>
<svg id="Layer_2" data-name="Layer 2" xmlns="http://www.w3.org/2000/svg" viewBox="0 0 76.53 86.27">
  <defs>
    <style>
      .cls-1, .cls-2 {
        fill: #1a1a1a;
      }

      .cls-2 {
        opacity: .7;
      }
    </style>
  </defs>
  <g id="Layer_3" data-name="Layer 3">
    <g>
      <path class="cls-1" d="M38.27,86.27c-1.17,0-2.34-.3-3.38-.9L3.38,67.18c-2.09-1.2-3.38-3.45-3.38-5.86V24.95c0-2.41,1.3-4.65,3.38-5.86L34.89.9c2.09-1.2,4.68-1.2,6.76,0l31.5,18.19c2.09,1.2,3.38,3.45,3.38,5.86v36.38c0,2.41-1.3,4.65-3.38,5.86l-31.5,18.19c-1.04.6-2.21.9-3.38.9ZM38.27,5c-.3,0-.61.08-.88.24L5.88,23.42c-.54.31-.88.9-.88,1.53v36.38c0,.63.34,1.21.88,1.53l31.5,18.19c.54.31,1.22.31,1.76,0l31.5-18.19c.54-.31.88-.9.88-1.53V24.95c0-.63-.34-1.21-.88-1.53h0S39.15,5.23,39.15,5.23c-.27-.16-.58-.24-.88-.24Z"/>
      <path class="cls-2" d="M74.71,62.45l-10.95-5.55,8.4-28.87c.45-1.56.23-3.25-.62-4.64s-2.25-2.36-3.85-2.67l-27.93-5.36V1.84h-3v13.53l-28.01,5.58c-1.59.32-2.98,1.29-3.82,2.68s-1.06,3.08-.6,4.63l8.43,28.63-10.94,5.55,1.36,2.68,11.07-5.62,19.88,20.26c1.1,1.12,2.57,1.73,4.13,1.73s3.03-.62,4.13-1.73l19.88-20.26,11.08,5.62,1.36-2.68ZM68.99,24.95c.41.68.52,1.47.3,2.24l-7.77,26.69-20.31-35.19,25.93,4.97c.78.15,1.44.61,1.85,1.28ZM59.38,56.17H17.15l21.11-36.57,21.11,36.57ZM7.21,27.42c-.22-.76-.12-1.55.29-2.23.41-.68,1.06-1.14,1.84-1.29l25.97-5.18L15,53.89l-7.79-26.47ZM40.26,77.66c-1.06,1.08-2.92,1.08-3.98,0l-18.15-18.49h40.28l-18.15,18.49Z"/>
    </g>
  </g>
</svg>