<?xml version="1.0" encoding="UTF-8"?>
<svg id="Layer_2" data-name="Layer 2" xmlns="http://www.w3.org/2000/svg" viewBox="0 0 78.86 77.63">
  <defs>
    <style>
      .cls-1 {
        fill: #1a1a1a;
      }

      .cls-2 {
        opacity: .7;
      }
    </style>
  </defs>
  <g id="Layer_3" data-name="Layer 3">
    <g>
      <path class="cls-1" d="M39.43,5c4,0,7.93.5,11.7,1.5,2.85.75,5.61,1.78,8.21,3.08,4.6,4.78,8.94,13.26,11.69,22.91,2.45,8.57,3.36,17.03,2.54,23.44-2.18,3.17-4.95,6.01-8.25,8.45-7.18,5.31-16.37,8.24-25.89,8.24s-18.72-2.93-25.89-8.24c-3.3-2.44-6.07-5.28-8.24-8.44-.83-6.4.07-14.86,2.53-23.45,2.75-9.64,7.09-18.13,11.69-22.91,2.6-1.29,5.36-2.33,8.22-3.08,3.76-.99,7.7-1.5,11.69-1.5M39.43,0c-4.51,0-8.87.58-12.97,1.67-3.51.92-6.84,2.22-9.93,3.83t0,0c-5.2,5.07-10.3,14.37-13.51,25.62C.12,41.24-.64,50.83.51,57.78c2.6,4.05,6.02,7.63,10.05,10.62,7.78,5.76,17.86,9.22,28.87,9.22s21.09-3.46,28.87-9.22c4.04-2.99,7.45-6.58,10.05-10.62,0,0,0,0,0,0,1.13-6.95.37-16.53-2.52-26.65-3.21-11.26-8.32-20.57-13.52-25.63-3.08-1.61-6.41-2.9-9.92-3.83-4.1-1.09-8.46-1.67-12.97-1.67h0Z"/>
      <g class="cls-2">
        <path class="cls-1" d="M26.18,4.85c3.93,2.63,6.16,15.65,1.14,33.21-4.19,14.71-11.19,24.41-16.25,26.94-3.05-2.45-5.63-5.24-7.69-8.33-.97-6.72-.06-15.68,2.52-24.74,2.88-10.11,7.5-19.03,12.42-24,2.49-1.27,5.13-2.31,7.86-3.09M26.46,1.67c-3.51.92-6.84,2.22-9.93,3.83t0,0c-5.2,5.07-10.3,14.37-13.51,25.62C.12,41.24-.64,50.83.51,57.78c2.6,4.05,6.02,7.63,10.05,10.62,6.98-1.87,15.16-13.78,19.64-29.51,5.21-18.22,3.51-34.73-3.75-37.22h0Z"/>
        <path class="cls-1" d="M52.68,4.85c2.72.79,5.36,1.82,7.86,3.09,4.91,4.96,9.54,13.89,12.42,24,2.58,9.03,3.5,17.99,2.54,24.72-2.06,3.09-4.65,5.89-7.7,8.34-5.06-2.53-12.06-12.23-16.26-26.94-5.02-17.58-2.79-30.59,1.15-33.21M52.41,1.67c-7.27,2.48-8.97,19-3.76,37.22,4.49,15.73,12.68,27.65,19.65,29.51,4.04-2.99,7.45-6.58,10.05-10.62,0,0,0,0,0,0,1.13-6.95.37-16.53-2.52-26.65-3.21-11.26-8.32-20.57-13.52-25.63-3.08-1.61-6.41-2.9-9.92-3.83h0Z"/>
      </g>
    </g>
  </g>
</svg>