<?xml version="1.0" encoding="UTF-8"?>
<svg id="Layer_2" data-name="Layer 2" xmlns="http://www.w3.org/2000/svg" viewBox="0 0 88.9 77.95">
  <defs>
    <style>
      .cls-1 {
        fill: #1a1a1a;
      }

      .cls-2 {
        opacity: .7;
      }
    </style>
  </defs>
  <g id="Layer_3" data-name="Layer 3">
    <g>
      <path class="cls-1" d="M44.45,77.95c-1.47,0-2.94-.46-4.2-1.38L2.53,49.04c-1.46-1.06-2.38-2.71-2.51-4.51s.51-3.56,1.79-4.84L39.42,2.09c1.34-1.35,3.13-2.09,5.04-2.09s3.69.74,5.04,2.09l37.61,37.61c1.28,1.28,1.93,3.04,1.79,4.84-.14,1.8-1.06,3.44-2.51,4.51l-37.72,27.53c-1.26.92-2.73,1.38-4.2,1.38ZM44.45,5c-.57,0-1.1.22-1.5.62L5.34,43.23c-.33.33-.36.72-.34.92s.1.58.48.86l37.72,27.53c.75.55,1.75.55,2.5,0l37.72-27.53c.38-.28.46-.66.48-.86.02-.2,0-.59-.34-.92L45.95,5.62c-.4-.4-.93-.62-1.5-.62Z"/>
      <g class="cls-2">
        <rect class="cls-1" x="42.95" y="4.14" width="3" height="71.3"/>
      </g>
    </g>
  </g>
</svg>