<?xml version="1.0" encoding="UTF-8"?>
<svg id="Layer_2" data-name="Layer 2" xmlns="http://www.w3.org/2000/svg" viewBox="0 0 74.17 83.37">
  <defs>
    <style>
      .cls-1, .cls-2 {
        fill: #1a1a1a;
      }

      .cls-2 {
        opacity: .7;
      }
    </style>
  </defs>
  <g id="Layer_3" data-name="Layer 3">
    <g>
      <path class="cls-1" d="M37.08,83.37c-1.26,0-2.53-.33-3.65-.98L3.66,65.21c-2.25-1.3-3.66-3.73-3.66-6.33V24.5c0-2.6,1.4-5.03,3.66-6.33L33.43.98c2.25-1.3,5.06-1.3,7.31,0l29.77,17.19c2.25,1.3,3.66,3.73,3.66,6.33v34.38c0,2.6-1.4,5.03-3.66,6.33l-29.77,17.19c-1.13.65-2.39.98-3.66.98ZM37.08,5c-.4,0-.8.1-1.16.31L6.16,22.5c-.71.41-1.16,1.18-1.16,2v34.38c0,.82.44,1.59,1.16,2l29.77,17.19c.71.41,1.6.41,2.31,0l29.77-17.19c.71-.41,1.16-1.18,1.16-2V24.5c0-.82-.44-1.59-1.16-2L38.24,5.31c-.36-.21-.76-.31-1.16-.31Z"/>
      <polygon class="cls-2" points="72.42 23.02 70.92 20.42 37.08 39.95 3.25 20.42 1.75 23.02 35.58 42.55 35.58 81.62 38.58 81.62 38.58 42.55 72.42 23.02"/>
    </g>
  </g>
</svg>