<?xml version="1.0" encoding="UTF-8"?>
<svg id="Layer_2" data-name="Layer 2" xmlns="http://www.w3.org/2000/svg" viewBox="0 0 69.51 64.63">
  <defs>
    <style>
      .cls-1, .cls-2 {
        fill: #1a1a1a;
      }

      .cls-2 {
        opacity: .7;
      }
    </style>
  </defs>
  <g id="Layer_3" data-name="Layer 3">
    <g>
      <path class="cls-1" d="M63.52,64.63H5.99c-1.63,0-3.2-.67-4.33-1.85C.52,61.59-.07,60.02,0,58.38L2.3,5.73c.14-3.21,2.77-5.73,5.99-5.73h52.94c3.22,0,5.85,2.52,5.99,5.73l2.29,52.64c.07,1.65-.52,3.21-1.66,4.4-1.12,1.17-2.7,1.85-4.33,1.85ZM8.28,5c-.53,0-.97.42-.99.95l-2.29,52.64c-.02.37.16.61.27.73.11.11.35.31.72.31h57.52c.37,0,.61-.19.72-.31.11-.11.29-.36.27-.73l-2.29-52.64c-.02-.53-.46-.95-.99-.95H8.28Z"/>
      <path class="cls-2" d="M68.36,61.22l-30.69-40.42L65.35,3.78l-1.57-2.56-28.77,17.69c-.09,0-.17-.03-.26-.03h0c-.09,0-.17.02-.26.03L5.72,1.22l-1.57,2.56,27.69,17.02L1.15,61.22l2.39,1.81,31.16-41.03s.04,0,.06,0,.04,0,.06,0l31.16,41.03,2.39-1.81Z"/>
    </g>
  </g>
</svg>