<svg width="2001" height="183" viewBox="0 0 2001 183" fill="none" xmlns="http://www.w3.org/2000/svg">
<path d="M345.061 96.1089C341.214 107.72 336.822 118.266 331.996 127.703C334.648 131.573 337.366 135.009 340.148 137.966C341.409 139.293 341.714 141.25 340.953 142.924L331.54 164.081C330.301 166.886 326.67 167.734 324.366 165.733C320.801 162.646 317.366 159.123 314.04 155.188C299.258 172.626 282.04 182.041 263.671 182.041C259.519 182.041 255.454 181.541 251.432 180.585C248.606 179.911 247.041 176.866 248.215 174.214L257.41 153.557C258.215 151.752 260.084 150.773 262.041 150.947C262.584 150.991 263.127 151.013 263.671 151.013C282.475 151.013 302.388 126.246 315.627 86.3458C332.214 36.3779 358.496 5.97962 388.583 1.19592C391.365 0.739299 393.887 2.93545 393.887 5.76218V28.0499C393.887 30.1156 392.496 31.8768 390.517 32.4422C373.735 37.3563 356.8 60.7965 345.061 96.1089ZM218.15 103.263C216.563 99.5662 211.389 99.4792 209.759 103.154L198.215 129.138C197.628 130.465 197.693 132.03 198.389 133.291C205.911 146.773 214.411 157.666 223.65 165.69C225.976 167.712 229.584 166.842 230.824 164.037L240.236 142.88C240.997 141.163 240.606 139.206 239.345 137.836C231.693 129.66 224.454 117.918 218.15 103.263ZM0 153.97C0 151.926 1.36955 150.186 3.34779 149.599C20.0867 144.598 36.9778 121.158 48.6734 85.9326C66.8036 31.3115 96.4772 0 130.085 0C137.89 0 145.477 1.69604 152.759 4.9794C155.955 6.4145 159.085 8.15403 162.172 10.198C163.868 11.3287 164.172 13.7205 162.759 15.1991C157.629 20.5482 152.868 26.9409 148.542 34.2904C147.607 35.856 145.564 36.3344 143.977 35.3776C143.585 35.2906 143.194 35.1602 142.824 34.9645C138.672 32.6596 134.498 31.4419 130.368 31.4419C111.564 31.4419 91.6511 56.2085 78.4122 96.1089C61.7602 146.207 35.4126 176.627 5.21733 181.302C2.45649 181.715 0 179.497 0 176.714C0 170.321 0 159.558 0 153.948V153.97ZM489.299 1.17418C459.212 5.95788 432.952 36.3561 416.343 86.324C403.104 126.224 383.191 150.991 364.387 150.991C363.844 150.991 363.3 150.969 362.757 150.926C360.8 150.752 358.931 151.73 358.126 153.535L348.931 174.192C347.757 176.845 349.3 179.889 352.148 180.563C356.148 181.52 360.235 182.02 364.387 182.02C397.974 182.02 427.647 150.708 445.778 96.1089C457.495 60.7965 474.451 37.3563 491.234 32.4422C493.212 31.8551 494.603 30.1156 494.603 28.0499V5.74044C494.603 2.93545 492.081 0.739299 489.299 1.17418ZM275.693 96.1089C276.997 100.066 282.497 100.349 284.192 96.522L296.714 68.3417C297.258 67.1457 297.258 65.7324 296.714 64.5364C290.105 49.6635 282.497 37.1824 274.084 27.2888C271.867 24.6795 267.693 25.3319 266.301 28.4413L256.258 51.0334C255.606 52.4902 255.758 54.1645 256.671 55.4909C263.758 66.0803 270.28 79.8443 275.693 96.1089ZM249.215 6.76241C241.084 2.58755 232.541 0.413138 223.737 0.413138C190.15 0.413138 160.476 31.7246 142.346 86.324C130.629 121.593 113.716 145.033 96.9554 149.991C95.0207 150.556 93.6729 152.339 93.6729 154.361V176.671C93.6729 179.476 96.1728 181.694 98.9554 181.237C128.999 176.388 155.216 146.012 171.781 96.1089C173.433 91.1295 175.194 86.3892 177.02 81.91C178.868 86.3892 180.628 91.1295 182.281 96.1089C183.585 100.066 189.085 100.349 190.78 96.522L203.302 68.3417C203.846 67.1457 203.846 65.7324 203.302 64.5364C200.846 59.0134 198.259 53.8166 195.541 48.9677C204.563 37.7042 214.28 31.4419 223.715 31.4419C227.845 31.4419 232.019 32.6596 236.171 34.9645C238.476 36.2474 241.41 35.1384 242.476 32.7466L251.345 12.7855C252.345 10.5241 251.388 7.91485 249.193 6.78415L249.215 6.76241Z" fill="url(#paint0_linear_81_3236)"/>
<path d="M665.254 151.687H592.886C582.712 151.687 573.951 148.034 566.625 140.771C559.277 133.487 555.604 124.659 555.604 114.309V30.3547H583.495V114.33C583.495 116.918 584.386 119.158 586.168 121.006C587.929 122.876 590.125 123.789 592.712 123.789H665.254V151.687Z" fill="black"/>
<path d="M713.297 30.3547H685.406V151.687H713.297V30.3547Z" fill="black"/>
<path d="M882.078 151.687H774.775C764.601 151.687 755.84 148.034 748.492 140.771C741.145 133.487 737.471 124.659 737.471 114.309V67.7328C737.471 57.3609 741.145 48.5545 748.492 41.2703C755.84 33.986 764.601 30.3547 774.775 30.3547H882.078V58.2741H774.601C772.014 58.2741 769.818 59.1874 768.057 61.0574C766.275 62.9274 765.383 65.1453 765.383 67.7328V114.309C765.383 116.896 766.275 119.136 768.079 120.984C769.862 122.854 772.057 123.767 774.644 123.767H854.187V104.828H795.731V76.9306H882.1V151.665L882.078 151.687Z" fill="black"/>
<path d="M1023.38 30.3547V76.9523H934.579V30.3547H906.688V151.687H934.579V104.85H1023.38V151.687H1051.27V30.3547H1023.38Z" fill="black"/>
<path d="M1071.19 30.3547V58.2524H1129.66V151.687H1157.58V58.2524H1216.03V30.3547H1071.19Z" fill="black"/>
<path d="M1506.07 30.3547H1478.18V151.687H1506.07V30.3547Z" fill="black"/>
<path d="M1647.46 114.309V67.7111C1647.46 65.1235 1646.57 62.9056 1644.79 61.0356C1643.01 59.1656 1640.81 58.2307 1638.22 58.2307H1558.66V123.746H1638.22C1640.81 123.746 1643.01 122.811 1644.79 120.941C1646.57 119.071 1647.46 116.853 1647.46 114.265M1675.37 114.309C1675.37 124.659 1671.74 133.487 1664.48 140.771C1657.2 148.055 1648.42 151.687 1638.09 151.687H1530.79V30.3547H1638.09C1648.42 30.3547 1657.22 34.0077 1664.48 41.2703C1671.74 48.5545 1675.37 57.3826 1675.37 67.7328V114.33V114.309Z" fill="black"/>
<path d="M1831.13 151.687H1735.48C1725.31 151.687 1716.55 148.034 1709.22 140.771C1701.87 133.487 1698.2 124.659 1698.2 114.309C1698.2 105.568 1700.87 97.8049 1706.2 91.0207C1700.85 84.2148 1698.2 76.4522 1698.2 67.7328C1698.2 57.3609 1701.85 48.5545 1709.11 41.2703C1716.39 33.986 1725.13 30.3547 1735.31 30.3547H1831.13V58.2741H1735.31C1732.72 58.2741 1730.52 59.1874 1728.76 61.0574C1726.98 62.9274 1726.09 65.1453 1726.09 67.7328C1726.09 70.3204 1726.98 72.5165 1728.76 74.2778C1730.52 76.0608 1732.72 76.9523 1735.31 76.9523H1831.13V104.85H1735.31C1732.72 104.85 1730.52 105.763 1728.76 107.546C1726.98 109.373 1726.09 111.569 1726.09 114.2C1726.09 116.831 1726.98 119.071 1728.76 120.962C1730.52 122.832 1732.72 123.789 1735.31 123.789H1831.13V151.687Z" fill="black"/>
<path d="M1455.22 76.9958V67.6241C1455.22 57.2957 1451.59 48.511 1444.33 41.2485C1437.05 33.986 1428.27 30.3547 1417.94 30.3547H1310.64V151.687H1338.53V114.287H1387.72L1413.83 151.687H1448.25L1421.64 114.113C1430.38 113.33 1437.96 109.764 1444.33 103.393C1451.62 96.1306 1455.25 87.3242 1455.25 76.9958H1455.22ZM1427.33 77.148C1427.33 79.7356 1426.44 81.9317 1424.66 83.693C1422.88 85.476 1420.68 86.3675 1418.09 86.3675H1338.53V58.2524H1418.09C1420.68 58.2524 1422.88 59.1874 1424.66 61.0574C1426.44 62.9274 1427.33 65.1453 1427.33 67.7328V77.1697V77.148Z" fill="black"/>
<path d="M2000.3 76.9958V67.6241C2000.3 57.2957 1996.67 48.511 1989.41 41.2485C1982.13 33.986 1973.35 30.3547 1963.02 30.3547H1855.72V151.687H1883.61V114.287H1932.8L1958.91 151.687H1993.33L1966.72 114.113C1975.46 113.33 1983.04 109.764 1989.41 103.393C1996.7 96.1306 2000.33 87.3242 2000.33 76.9958H2000.3ZM1972.41 77.148C1972.41 79.7356 1971.52 81.9317 1969.74 83.693C1967.96 85.476 1965.76 86.3675 1963.17 86.3675H1883.61V58.2524H1963.17C1965.76 58.2524 1967.96 59.1874 1969.74 61.0574C1971.52 62.9274 1972.41 65.1453 1972.41 67.7328V77.1697V77.148Z" fill="black"/>
<defs>
<linearGradient id="paint0_linear_81_3236" x1="0" y1="90.999" x2="494.603" y2="90.999" gradientUnits="userSpaceOnUse">
<stop stop-color="#FFCD34"/>
<stop offset="0.48" stop-color="#F26739"/>
<stop offset="1" stop-color="#EF3B39"/>
</linearGradient>
</defs>
</svg>
