<svg width="2000" height="589" viewBox="0 0 2000 589" fill="none" xmlns="http://www.w3.org/2000/svg">
<path d="M1135.33 133.014C1130.01 149.084 1123.93 163.68 1117.25 176.74C1120.92 182.097 1124.68 186.852 1128.53 190.945C1130.28 192.78 1130.7 195.489 1129.64 197.806L1116.61 227.087C1114.9 230.969 1109.87 232.143 1106.68 229.374C1101.75 225.101 1096.99 220.226 1092.39 214.779C1071.92 238.914 1048.09 251.945 1022.66 251.945C1016.91 251.945 1011.29 251.253 1005.72 249.928C1001.81 248.995 999.639 244.782 1001.26 241.111L1013.99 212.522C1015.11 210.024 1017.7 208.67 1020.4 208.911C1021.16 208.971 1021.91 209.001 1022.66 209.001C1048.69 209.001 1076.26 174.724 1094.59 119.502C1117.55 50.3468 1153.93 8.27577 1195.58 1.65515C1199.43 1.02319 1202.92 4.06265 1202.92 7.97484V38.8209C1202.92 41.6798 1201 44.1174 1198.26 44.8998C1175.03 51.701 1151.58 84.1421 1135.33 133.014ZM959.615 142.915C957.418 137.799 950.256 137.679 947.999 142.765L932.019 178.727C931.206 180.562 931.297 182.729 932.26 184.475C942.672 203.133 954.439 218.21 967.228 229.314C970.448 232.113 975.444 230.909 977.159 227.027L990.19 197.746C991.243 195.368 990.702 192.66 988.956 190.764C978.363 179.449 968.342 163.198 959.615 142.915ZM657.654 213.094C657.654 210.265 659.55 207.857 662.289 207.045C685.461 200.123 708.844 167.682 725.034 118.93C750.132 43.335 791.21 0 837.705 0C848.509 0 859.011 2.34731 869.093 6.89146C873.517 8.87765 877.85 11.2851 882.123 14.114C884.471 15.6788 884.892 18.9891 882.936 21.0355C875.834 28.4386 869.243 37.2861 863.255 47.4578C861.961 49.6246 859.132 50.2866 856.935 48.9625C856.393 48.8421 855.852 48.6616 855.34 48.3907C849.592 45.2008 843.814 43.5155 838.096 43.5155C812.065 43.5155 784.499 77.7923 766.172 133.014C743.12 202.35 706.647 244.451 664.847 250.921C661.055 251.523 657.654 248.454 657.654 244.602C657.654 235.754 657.654 220.858 657.654 213.094ZM1335 1.62506C1293.35 8.24568 1257 50.3167 1234.01 119.472C1215.68 174.694 1188.12 208.971 1162.09 208.971C1161.33 208.971 1160.58 208.941 1159.83 208.881C1157.12 208.64 1154.53 209.994 1153.42 212.492L1140.69 241.081C1139.06 244.752 1141.2 248.965 1145.14 249.898C1150.68 251.222 1156.34 251.915 1162.09 251.915C1208.58 251.915 1249.66 208.58 1274.76 133.014C1290.98 84.1421 1314.45 51.701 1337.68 44.8998C1340.42 44.0873 1342.35 41.6798 1342.35 38.8209V7.94474C1342.35 4.06265 1338.86 1.02319 1335 1.62506ZM1039.27 133.014C1041.08 138.491 1048.69 138.883 1051.04 133.586L1068.37 94.5846C1069.13 92.9294 1069.13 90.9733 1068.37 89.3182C1059.23 68.7341 1048.69 51.4603 1037.05 37.7676C1033.98 34.1564 1028.2 35.0592 1026.27 39.3626L1012.37 70.63C1011.47 72.6462 1011.68 74.9635 1012.94 76.7992C1022.75 91.4548 1031.78 110.504 1039.27 133.014ZM1002.65 9.35915C991.394 3.58115 979.567 0.571781 967.379 0.571781C920.884 0.571781 879.806 43.9067 854.708 119.472C838.488 168.284 815.075 200.725 791.872 207.587C789.194 208.369 787.328 210.837 787.328 213.635V244.512C787.328 248.394 790.789 251.463 794.641 250.831C836.23 244.12 872.523 202.079 895.455 133.014C897.742 126.123 900.18 119.562 902.707 113.363C905.265 119.562 907.703 126.123 909.99 133.014C911.796 138.491 919.41 138.883 921.757 133.586L939.091 94.5846C939.843 92.9294 939.843 90.9733 939.091 89.3182C935.69 81.6744 932.109 74.482 928.347 67.7711C940.836 52.1825 954.288 43.5155 967.349 43.5155C973.067 43.5155 978.845 45.2008 984.593 48.3907C987.783 50.1662 991.845 48.6315 993.32 45.3212L1005.6 17.6951C1006.98 14.5654 1005.66 10.9541 1002.62 9.38924L1002.65 9.35915Z" fill="url(#paint0_linear_81_3417)"/>
<path d="M151.793 588.898H51.6107C37.5269 588.898 25.3991 583.842 15.2575 573.791C5.08584 563.709 0 551.491 0 537.167V420.945H38.6103V537.167C38.6103 540.748 39.8441 543.848 42.3118 546.406C44.7494 548.994 47.7888 550.258 51.37 550.258H151.793V588.868V588.898Z" fill="black"/>
<path d="M218.329 420.975H179.719V588.898H218.329V420.975Z" fill="black"/>
<path d="M451.978 588.898H303.436C289.352 588.898 277.224 583.842 267.052 573.791C256.881 563.71 251.795 551.492 251.795 537.167V472.706C251.795 458.352 256.881 446.164 267.052 436.082C277.224 426.001 289.352 420.975 303.436 420.975H451.978V459.615H303.195C299.614 459.615 296.574 460.879 294.137 463.467C291.669 466.056 290.435 469.125 290.435 472.706V537.167C290.435 540.748 291.669 543.848 294.167 546.406C296.635 548.994 299.674 550.258 303.255 550.258H413.368V524.046H332.446V485.436H452.008V588.868L451.978 588.898Z" fill="black"/>
<path d="M647.557 420.975V485.466H524.654V420.975H486.014V588.898H524.654V524.076H647.557V588.898H686.197V420.975H647.557Z" fill="black"/>
<path d="M713.762 420.975V459.585H794.714V588.898H833.324V459.585H914.246V420.975H713.762Z" fill="black"/>
<path d="M1315.76 420.975H1277.15V588.898H1315.76V420.975Z" fill="black"/>
<path d="M1511.52 537.167V472.676C1511.52 469.095 1510.28 466.025 1507.82 463.437C1505.35 460.849 1502.31 459.555 1498.73 459.555H1388.58V550.228H1498.73C1502.31 550.228 1505.35 548.934 1507.82 546.346C1510.28 543.758 1511.52 540.688 1511.52 537.107M1550.13 537.167C1550.13 551.492 1545.1 563.71 1535.05 573.791C1524.97 583.872 1512.81 588.898 1498.52 588.898H1349.97V420.975H1498.52C1512.81 420.975 1525 426.031 1535.05 436.082C1545.1 446.164 1550.13 458.382 1550.13 472.706V537.197V537.167Z" fill="black"/>
<path d="M1765.78 588.898H1633.37C1619.28 588.898 1607.16 583.842 1597.02 573.791C1586.84 563.71 1581.76 551.492 1581.76 537.167C1581.76 525.069 1585.46 514.326 1592.83 504.937C1585.43 495.517 1581.76 484.774 1581.76 472.706C1581.76 458.352 1586.81 446.164 1596.86 436.082C1606.95 426.001 1619.04 420.975 1633.13 420.975H1765.78V459.615H1633.13C1629.55 459.615 1626.51 460.879 1624.07 463.467C1621.6 466.056 1620.37 469.125 1620.37 472.706C1620.37 476.287 1621.6 479.327 1624.07 481.764C1626.51 484.232 1629.55 485.466 1633.13 485.466H1765.78V524.076H1633.13C1629.55 524.076 1626.51 525.34 1624.07 527.808C1621.6 530.336 1620.37 533.375 1620.37 537.017C1620.37 540.658 1621.6 543.757 1624.07 546.376C1626.51 548.964 1629.55 550.288 1633.13 550.288H1765.78V588.898Z" fill="black"/>
<path d="M1245.4 485.526V472.556C1245.4 458.261 1240.37 446.103 1230.32 436.052C1220.24 426.001 1208.08 420.975 1193.79 420.975H1045.25V588.898H1083.86V537.137H1151.96L1188.1 588.898H1235.74L1198.9 536.896C1211 535.813 1221.51 530.877 1230.32 522.06C1240.4 512.009 1245.43 499.821 1245.43 485.526H1245.4ZM1206.76 485.737C1206.76 489.318 1205.53 492.357 1203.06 494.795C1200.59 497.263 1197.55 498.497 1193.97 498.497H1083.83V459.585H1193.97C1197.55 459.585 1200.59 460.879 1203.06 463.467C1205.53 466.056 1206.76 469.125 1206.76 472.706V485.767V485.737Z" fill="black"/>
<path d="M1999.97 485.526V472.556C1999.97 458.261 1994.94 446.103 1984.89 436.052C1974.81 426.001 1962.65 420.975 1948.36 420.975H1799.82V588.898H1838.43V537.137H1906.53L1942.67 588.898H1990.31L1953.47 536.896C1965.57 535.813 1976.08 530.877 1984.89 522.06C1994.97 512.009 2000 499.821 2000 485.526H1999.97ZM1961.33 485.737C1961.33 489.318 1960.1 492.357 1957.63 494.795C1955.16 497.263 1952.12 498.497 1948.54 498.497H1838.4V459.585H1948.54C1952.12 459.585 1955.16 460.879 1957.63 463.467C1960.1 466.056 1961.33 469.125 1961.33 472.706V485.767V485.737Z" fill="black"/>
<defs>
<linearGradient id="paint0_linear_81_3417" x1="657.654" y1="125.942" x2="1342.35" y2="125.942" gradientUnits="userSpaceOnUse">
<stop stop-color="#FFCD34"/>
<stop offset="0.48" stop-color="#F26739"/>
<stop offset="1" stop-color="#EF3B39"/>
</linearGradient>
</defs>
</svg>
