<svg width="89" height="89" viewBox="0 0 89 89" fill="none" xmlns="http://www.w3.org/2000/svg">
<rect width="8.09091" height="8.09091" fill="#CCCCCC"/>
<rect y="32.3638" width="8.09091" height="8.09091" fill="#919191"/>
<rect y="64.7271" width="8.09091" height="8.09091" fill="#3F3F3F"/>
<rect y="80.9092" width="8.09091" height="8.09091" fill="#CCCCCC"/>
<rect x="16.1816" width="8.09091" height="8.09091" fill="#919191"/>
<rect x="16.1816" y="16.1816" width="8.09091" height="8.09091" fill="#CCCCCC"/>
<rect x="16.1816" y="32.3638" width="8.09091" height="8.09091" fill="#CCCCCC"/>
<rect x="16.1816" y="48.5454" width="8.09091" height="8.09091" fill="#CCCCCC"/>
<rect x="16.1816" y="64.7271" width="8.09091" height="8.09091" fill="#CCCCCC"/>
<rect x="16.1816" y="80.9092" width="8.09091" height="8.09091" fill="#919191"/>
<rect x="32.3633" width="8.09091" height="8.09091" fill="#919191"/>
<rect x="32.3633" y="32.3638" width="8.09091" height="8.09091" fill="#3F3F3F"/>
<rect x="32.3633" y="48.5454" width="8.09091" height="8.09091" fill="#919191"/>
<rect x="32.3633" y="64.7271" width="8.09091" height="8.09091" fill="#CCCCCC"/>
<rect x="32.3633" y="80.9092" width="8.09091" height="8.09091" fill="#CCCCCC"/>
<rect x="48.5449" width="8.09091" height="8.09091" fill="#CCCCCC"/>
<rect x="48.5449" y="16.1816" width="8.09091" height="8.09091" fill="#CCCCCC"/>
<rect x="48.5449" y="32.3638" width="8.09091" height="8.09091" fill="#919191"/>
<rect x="48.5449" y="48.5454" width="8.09091" height="8.09091" fill="#CCCCCC"/>
<rect x="48.5449" y="64.7271" width="8.09091" height="8.09091" fill="#CCCCCC"/>
<rect x="48.5449" y="80.9092" width="8.09091" height="8.09091" fill="#CCCCCC"/>
<rect x="64.7266" width="8.09091" height="8.09091" fill="#CCCCCC"/>
<rect x="64.7266" y="16.1816" width="8.09091" height="8.09091" fill="#3F3F3F"/>
<rect x="64.7266" y="32.3638" width="8.09091" height="8.09091" fill="#CCCCCC"/>
<rect x="64.7266" y="48.5454" width="8.09091" height="8.09091" fill="#CCCCCC"/>
<rect x="64.7266" y="64.7271" width="8.09091" height="8.09091" fill="#919191"/>
<rect x="80.9082" y="16.1816" width="8.09091" height="8.09091" fill="#919191"/>
<rect x="80.9082" y="48.5454" width="8.09091" height="8.09091" fill="#CCCCCC"/>
<rect x="80.9082" y="64.7271" width="8.09091" height="8.09091" fill="#CCCCCC"/>
<rect x="80.9082" y="80.9092" width="8.09091" height="8.09091" fill="#3F3F3F"/>
</svg>
